<svg width="24" height="15" viewBox="0 0 24 15" fill="none" xmlns="http://www.w3.org/2000/svg">
<path d="M24 14.0108H0C0.238475 11.8394 0.996524 9.75729 2.21 7.94082C3.14322 6.4991 4.39549 5.29131 5.87 4.41082L6.28 4.18082L4.26 0.770816C4.18989 0.655403 4.16841 0.516896 4.20028 0.38567C4.23215 0.254445 4.31476 0.141216 4.43 0.0708162C4.48698 0.0367629 4.55016 0.0143944 4.61587 0.00501598C4.68158 -0.00436249 4.7485 -0.00056321 4.81273 0.0161916C4.87695 0.0329464 4.9372 0.0623215 4.98996 0.102604C5.04271 0.142887 5.08692 0.19327 5.12 0.250816L7.2 3.75082C8.73861 3.136 10.3832 2.83018 12.04 2.85082C13.6675 2.83096 15.2826 3.13696 16.79 3.75082L18.86 0.250816C18.8939 0.192731 18.9392 0.142081 18.9931 0.101897C19.047 0.0617134 19.1085 0.0328215 19.1738 0.0169503C19.2392 0.00107897 19.3071 -0.00144546 19.3734 0.00952829C19.4398 0.020502 19.5032 0.0447481 19.56 0.0808159C19.6736 0.152831 19.7541 0.266788 19.7841 0.397886C19.814 0.528984 19.791 0.666612 19.72 0.780816L17.7 4.20082L18.2 4.48082C19.6696 5.39569 20.9111 6.63376 21.83 8.10082C22.978 9.88782 23.7189 11.9055 24 14.0108V14.0108ZM16.5 9.53082C16.5 9.79603 16.6054 10.0504 16.7929 10.2379C16.9804 10.4255 17.2348 10.5308 17.5 10.5308C17.7652 10.5308 18.0196 10.4255 18.2071 10.2379C18.3946 10.0504 18.5 9.79603 18.5 9.53082C18.5 9.2656 18.3946 9.01125 18.2071 8.82371C18.0196 8.63617 17.7652 8.53082 17.5 8.53082C17.2348 8.53082 16.9804 8.63617 16.7929 8.82371C16.6054 9.01125 16.5 9.2656 16.5 9.53082ZM5.5 9.53082C5.5 9.79603 5.60536 10.0504 5.79289 10.2379C5.98043 10.4255 6.23478 10.5308 6.5 10.5308C6.76522 10.5308 7.01957 10.4255 7.20711 10.2379C7.39464 10.0504 7.5 9.79603 7.5 9.53082C7.5 9.2656 7.39464 9.01125 7.20711 8.82371C7.01957 8.63617 6.76522 8.53082 6.5 8.53082C6.23478 8.53082 5.98043 8.63617 5.79289 8.82371C5.60536 9.01125 5.5 9.2656 5.5 9.53082Z" fill="white"/>
</svg>
