<svg width="24" height="25" viewBox="0 0 24 25" fill="none" xmlns="http://www.w3.org/2000/svg">
<path d="M4.105 4.10632C4.105 4.10632 9.158 1.58132 11.684 0.317324C12.1438 0.0906863 12.6528 -0.0175875 13.165 0.00232439C13.931 0.0493244 14.842 0.790324 14.842 0.790324L24 9.94932V19.7383H19.737V24.0013H9.789L0.789 15.0013C0.303 14.5013 0 13.7963 0 13.1063C0 12.7873 0.18 12.2883 0.316 12.0013L4.105 4.10632ZM4.784 4.78532V16.5723C4.786 17.1153 4.805 17.5963 5.282 18.0803L10.204 23.0013H18.737V18.7383L4.784 4.78532V4.78532ZM16.839 4.10732C15.94 3.21132 15.03 2.32732 14.099 1.46432C13.797 1.19732 13.532 0.996324 13.029 1.00232C12.659 1.01632 12.159 1.19732 12.159 1.19732L6.341 4.10632L16.839 4.10732Z" fill="white"/>
</svg>
