<svg width="24" height="8" viewBox="0 0 24 8" fill="none" xmlns="http://www.w3.org/2000/svg">
<path d="M3.673 1.041V0.000999451H0V5.724H3.68V4.676H1.186V3.298H3.344V2.281H1.186V1.04L3.673 1.041ZM5.835 7.675L8.367 1.768H7.127L6.225 4.125L5.315 1.768H4.081L5.627 5.372L4.617 7.675H5.835ZM12.46 4.102V3.658C12.46 2.426 11.71 1.692 10.57 1.692C9.391 1.692 8.557 2.472 8.557 3.75C8.557 5.02 9.391 5.808 10.6 5.808C11.526 5.808 12.284 5.272 12.421 4.523L11.297 4.469C11.212 4.744 10.96 4.905 10.57 4.905C10.065 4.905 9.766 4.591 9.743 4.102H12.46ZM10.562 2.564C11.067 2.564 11.312 2.878 11.335 3.36H9.743C9.774 2.855 10.088 2.564 10.563 2.564H10.562ZM17.04 1.04V0H13.368V5.723H17.048V4.675H14.553V3.297H16.711V2.28H14.553V1.04H17.04ZM22.5 1.69C21.903 1.69 21.513 1.958 21.284 2.318C21.024 1.912 20.587 1.691 20.044 1.691C19.501 1.691 19.18 1.897 19.004 2.173V1.767H17.948V5.723H19.065V3.527C19.065 3.053 19.333 2.731 19.776 2.731C20.182 2.731 20.419 3.014 20.419 3.519V5.723H21.536V3.39C21.582 2.992 21.827 2.732 22.225 2.732C22.653 2.732 22.883 3.015 22.883 3.52V5.724H24V3.298C24 2.296 23.403 1.692 22.5 1.692V1.69Z" fill="white"/>
</svg>
