<svg width="24" height="24" viewBox="0 0 24 24" fill="none" xmlns="http://www.w3.org/2000/svg">
<path d="M23.546 10.9303L13.067 0.45225C12.463 -0.15075 11.485 -0.15075 10.879 0.45225L8.708 2.62725L11.468 5.38725C12.113 5.17225 12.847 5.31725 13.357 5.82825C13.873 6.34325 14.015 7.08625 13.795 7.72825L16.453 10.3882C17.098 10.1652 17.84 10.3102 18.353 10.8232C19.074 11.5432 19.074 12.7072 18.353 13.4272C17.634 14.1462 16.472 14.1462 15.753 13.4272C15.214 12.8862 15.079 12.0902 15.349 11.4312L12.86 8.95525V15.4802C13.036 15.5662 13.202 15.6832 13.348 15.8282C14.061 16.5492 14.061 17.7112 13.348 18.4282C12.629 19.1492 11.459 19.1492 10.739 18.4282C10.02 17.7092 10.02 16.5492 10.739 15.8302C10.921 15.6502 11.126 15.5142 11.344 15.4242V8.83525C11.127 8.74425 10.92 8.61325 10.744 8.43425C10.199 7.88925 10.068 7.09225 10.348 6.42525L7.636 3.70025L0.45 10.8812C-0.15 11.4862 -0.15 12.4652 0.45 13.0702L10.93 23.5473C11.534 24.1513 12.512 24.1513 13.116 23.5473L23.546 13.1172C24.151 12.5142 24.151 11.5353 23.546 10.9303" fill="white"/>
</svg>
