<svg width="24" height="18" viewBox="0 0 24 18" fill="none" xmlns="http://www.w3.org/2000/svg">
<path d="M22.6791 1.13782C21.1791 -0.362176 18.8791 -0.362177 17.3791 1.03782C17.2791 1.13782 17.2791 1.23782 17.2791 1.33782C17.2791 1.43782 17.2791 1.53782 17.3791 1.63782L17.8791 2.13782C17.9791 2.23782 18.1791 2.23782 18.3791 2.13782C18.7791 1.83782 19.1791 1.73782 19.6791 1.73782C20.8791 1.73782 21.8791 2.73782 21.8791 3.93782C21.8791 4.53782 21.6791 5.03782 21.2791 5.43782C18.2791 8.43782 14.1791 0.0378232 5.07911 4.33782C4.47911 4.63782 4.17911 5.33782 4.47911 5.93782V6.03782L5.97911 8.73782C6.27911 9.33782 7.07911 9.53782 7.67911 9.23782L8.37911 8.83782C9.17911 8.33782 9.87911 7.83782 10.5791 7.23782C10.6791 7.13782 10.9791 7.13782 11.0791 7.23782C11.2791 7.33782 11.2791 7.53782 11.1791 7.73782L11.0791 7.83782C10.3791 8.43782 9.57911 9.03782 8.77911 9.53782L8.07911 9.83782C7.77911 10.0378 7.47911 10.1378 7.07911 10.1378C6.37911 10.1378 5.67911 9.73782 5.37911 9.13782L3.87911 6.53782C1.07911 8.53782 -0.720894 12.4378 0.279106 17.3378C0.279106 17.5378 0.479106 17.6378 0.679106 17.6378H2.37911C2.57911 17.6378 2.67911 17.5378 2.77911 17.3378C2.97911 15.9378 4.17911 15.0378 5.57911 15.2378C6.67911 15.3378 7.57911 16.2378 7.67911 17.3378C7.67911 17.5378 7.87911 17.6378 8.07911 17.6378H9.67911C9.87911 17.6378 9.97911 17.5378 10.0791 17.3378C10.2791 15.9378 11.4791 15.0378 12.8791 15.2378C13.9791 15.3378 14.8791 16.2378 14.9791 17.3378C14.9791 17.5378 15.1791 17.6378 15.3791 17.6378H16.9791C17.1791 17.6378 17.3791 17.4378 17.3791 17.2378C17.3791 14.9378 18.0791 12.3378 19.7791 11.0378C25.6791 6.43782 24.0791 2.53782 22.6791 1.13782V1.13782ZM16.4791 8.03782L15.2791 7.43782C15.2791 7.03782 15.5791 6.73782 15.9791 6.73782C16.3791 6.73782 16.6791 7.03782 16.6791 7.43782C16.7791 7.73782 16.6791 7.93782 16.4791 8.03782Z" fill="white"/>
</svg>
