<svg width="22" height="24" viewBox="0 0 22 24" fill="none" xmlns="http://www.w3.org/2000/svg">
<path d="M10.441 0C9.71662 0.0093564 9.00839 0.215361 8.392 0.596L2.017 4.532C1.40067 4.91282 0.891869 5.4448 0.538868 6.07747C0.185868 6.71014 0.000378285 7.42251 0 8.147V16.177C0 17.65 0.79 19.015 2.067 19.751L8.553 23.484C9.13589 23.819 9.79583 23.9968 10.4681 23.9999C11.1404 24.0031 11.802 23.8315 12.388 23.502L19.431 19.536C20.0202 19.2039 20.5107 18.7212 20.8521 18.1374C21.1935 17.5535 21.3736 16.8894 21.374 16.213V7.752C21.3738 7.12772 21.2098 6.51441 20.8986 5.97326C20.5873 5.43212 20.1395 4.98207 19.6 4.668L12.504 0.541C11.8779 0.177539 11.1649 -0.0091005 10.441 0.001V0ZM10.463 1.674C10.876 1.668 11.291 1.774 11.663 1.989L18.758 6.116C19.342 6.456 19.699 7.076 19.698 7.751V16.213C19.698 16.987 19.284 17.697 18.609 18.077L11.567 22.043C11.2342 22.2308 10.8583 22.3286 10.4762 22.3269C10.0941 22.3251 9.71903 22.2238 9.388 22.033L2.903 18.299C2.52961 18.0845 2.21944 17.7752 2.00382 17.4025C1.78821 17.0297 1.67478 16.6066 1.675 16.176V8.146C1.675 7.253 2.136 6.426 2.896 5.956L9.272 2.021C9.62992 1.79968 10.0412 1.67975 10.462 1.674H10.463ZM5.763 5.518V18.37H8.453V12.75H12.913V18.37H15.609V5.518H12.913V10.199H8.453V5.518H5.763Z" fill="white"/>
</svg>
