<svg width="18" height="24" viewBox="0 0 18 24" fill="none" xmlns="http://www.w3.org/2000/svg">
<path d="M5.70126 18.56C5.70126 18.56 4.78426 19.094 6.35426 19.274C8.25626 19.492 9.22826 19.461 11.3233 19.063C11.3233 19.063 11.8753 19.409 12.6443 19.709C7.94526 21.722 2.01126 19.591 5.70126 18.56V18.56ZM5.12626 15.933C5.12626 15.933 4.09826 16.694 5.66826 16.857C7.70026 17.066 9.30426 17.084 12.0813 16.549C12.0813 16.549 12.4653 16.938 13.0683 17.151C7.38926 18.812 1.06126 17.281 5.12626 15.933ZM9.96626 11.475C11.1243 12.808 9.66226 14.008 9.66226 14.008C9.66226 14.008 12.6013 12.49 11.2513 10.59C9.99026 8.818 9.02326 7.938 14.2583 4.902C14.2583 4.901 6.04226 6.953 9.96626 11.475V11.475ZM16.1803 20.504C16.1803 20.504 16.8593 21.063 15.4333 21.495C12.7213 22.317 4.14526 22.564 1.76426 21.528C0.908258 21.155 2.51426 20.638 3.01826 20.53C3.54526 20.416 3.84626 20.437 3.84626 20.437C2.89326 19.766 -2.30974 21.754 1.20326 22.324C10.7833 23.877 18.6653 21.624 16.1803 20.504ZM6.14226 13.21C6.14226 13.21 1.78026 14.246 4.59826 14.622C5.78726 14.781 8.15926 14.745 10.3683 14.56C12.1743 14.408 13.9863 14.083 13.9863 14.083C13.9863 14.083 13.3493 14.355 12.8883 14.67C8.45926 15.835 -0.0977428 15.293 2.36626 14.102C4.44826 13.096 6.14226 13.21 6.14226 13.21ZM13.9663 17.584C18.4693 15.244 16.3873 12.995 14.9343 13.299C14.5793 13.373 14.4193 13.437 14.4193 13.437C14.4193 13.437 14.5513 13.23 14.8043 13.14C17.6793 12.129 19.8903 16.121 13.8763 17.702C13.8763 17.701 13.9463 17.64 13.9663 17.584ZM11.2513 0C11.2513 0 13.7453 2.494 8.88626 6.33C4.99026 9.407 7.99826 11.162 8.88526 13.166C6.61126 11.113 4.94226 9.308 6.06126 7.627C7.70526 5.158 12.2583 3.962 11.2513 0V0ZM6.58426 23.924C10.9063 24.201 17.5433 23.771 17.7003 21.726C17.7003 21.726 17.3983 22.501 14.1283 23.117C10.4403 23.811 5.88926 23.73 3.19126 23.285C3.19126 23.284 3.74426 23.742 6.58426 23.924" fill="white"/>
</svg>
