<svg width="14" height="24" viewBox="0 0 14 24" fill="none" xmlns="http://www.w3.org/2000/svg">
<path d="M2.84523 24C2.49723 24 2.15623 23.937 1.82523 23.811C0.450231 23.286 -0.278769 21.791 0.099231 20.409L0.0842306 20.403L0.174231 20.177L7.17123 2.01C7.27623 1.74 7.22823 1.1 7.17723 0.743C7.16123 0.658 7.16123 0.582 7.18523 0.503L7.19323 0.48L7.19923 0.465V0.458L7.20823 0.439C7.31623 0.147 7.65823 0 8.21623 0C8.88923 0 9.81823 0.21 10.7672 0.573C11.5642 0.88 12.2902 1.262 12.8002 1.648C13.4022 2.098 13.6422 2.502 13.5072 2.848L13.4762 2.893L13.4602 2.908C13.4152 2.969 13.3702 3.028 13.3102 3.073C12.9962 3.344 12.5462 3.808 12.4702 4.018L5.40723 22.439L5.39123 22.433C4.89723 23.381 3.93423 23.99 2.84823 23.994H2.84223L2.84523 24ZM0.658231 20.282L0.638231 20.332C0.191231 21.533 0.800231 22.889 2.00223 23.35C2.27323 23.455 2.55323 23.504 2.83923 23.504C3.81023 23.504 4.66923 22.919 5.02723 22.004L5.05423 21.943L12.0132 3.853C12.1592 3.463 12.8532 2.833 12.9922 2.713L13.0082 2.697C13.0202 2.682 13.0282 2.682 13.0282 2.667C13.0282 2.607 12.9672 2.397 12.4712 2.022C11.9922 1.662 11.3172 1.302 10.5672 1.017C9.69923 0.689 8.79923 0.478 8.19923 0.478C7.80923 0.478 7.67523 0.56 7.65423 0.604V0.644C7.67023 0.748 7.80123 1.679 7.62023 2.159L0.658231 20.279V20.282V20.282ZM9.60823 8.775C9.60823 8.775 8.64423 9.884 7.76523 10.284C6.88523 10.682 6.23623 10.577 5.44523 11.04C4.65623 11.501 4.25723 12.143 4.25723 12.143L1.04223 20.505C0.694231 21.449 1.21023 22.555 2.16723 22.925C3.12723 23.294 4.20723 22.805 4.57923 21.869L9.60823 8.775V8.775ZM4.67723 18.76C4.78123 18.719 4.90223 18.76 4.94323 18.865C4.98523 18.969 4.94323 19.087 4.83823 19.129C4.73423 19.172 4.61323 19.129 4.57223 19.025C4.53023 18.928 4.57223 18.809 4.67723 18.76ZM3.66323 16.958C3.51123 17.026 3.32923 16.958 3.26623 16.803C3.19623 16.651 3.26623 16.469 3.42023 16.406C3.57423 16.336 3.75523 16.406 3.81823 16.559C3.89223 16.709 3.82623 16.873 3.66323 16.949V16.958ZM3.94923 15.862C3.82623 15.574 3.94923 15.239 4.23623 15.104C4.52123 14.98 4.85123 15.104 4.98623 15.389C5.10723 15.678 4.98623 16.013 4.70123 16.146C4.40123 16.272 4.07223 16.146 3.93623 15.861L3.94923 15.862V15.862ZM6.37523 13.604C6.52823 13.53 6.71023 13.604 6.77323 13.754C6.84323 13.908 6.77323 14.09 6.62023 14.153C6.46523 14.223 6.28323 14.153 6.22123 13.998C6.14723 13.846 6.22123 13.664 6.37523 13.601V13.604V13.604ZM5.08223 12.225C5.18723 12.183 5.30823 12.225 5.34823 12.33C5.39123 12.434 5.34823 12.556 5.24423 12.596C5.14023 12.638 5.01823 12.596 4.97923 12.492C4.93523 12.386 4.98523 12.265 5.08223 12.225V12.225ZM8.45323 1.14C8.55323 0.879 9.44623 0.978 10.4482 1.366C11.4472 1.75 12.1772 2.275 12.0782 2.536C11.9742 2.8 11.0812 2.7 10.0822 2.315C9.07723 1.93 8.34823 1.405 8.45023 1.139H8.45323V1.14Z" fill="white"/>
</svg>
