<svg width="25" height="24" viewBox="0 0 25 24" fill="none" xmlns="http://www.w3.org/2000/svg">
<path d="M14.31 0.18L15.21 0.38L15.94 0.64L16.53 0.94L16.98 1.26L17.32 1.6L17.57 1.94L17.73 2.27L17.83 2.57L17.87 2.83L17.89 3.03L17.88 3.16V8.5L17.83 9.13L17.7 9.68L17.49 10.14L17.23 10.52L16.93 10.83L16.6 11.08L16.25 11.27L15.9 11.41L15.57 11.51L15.27 11.58L15.01 11.62L14.8 11.64H8.83L8.14 11.69L7.55 11.83L7.05 12.05L6.64 12.32L6.31 12.64L6.04 12.99L5.84 13.35L5.69 13.72L5.59 14.07L5.52 14.39L5.48 14.66L5.46 14.87V17.93H3.23L3.02 17.9L2.74 17.83L2.42 17.71L2.07 17.53L1.71 17.27L1.35 16.91L1 16.45L0.68 15.86L0.4 15.13L0.19 14.25L0.05 13.2L0 11.97L0.06 10.75L0.22 9.71L0.46 8.84L0.78 8.13L1.14 7.56L1.54 7.12L1.96 6.79L2.38 6.55L2.78 6.39L3.14 6.29L3.46 6.24L3.7 6.23H3.86L3.92 6.24H12.08V5.41H6.24L6.23 2.66L6.21 2.29L6.26 1.95L6.37 1.64L6.54 1.36L6.79 1.1L7.1 0.87L7.48 0.67L7.92 0.49L8.43 0.34L9.01 0.22L9.65 0.12L10.36 0.06L11.13 0.02L11.97 0L13.24 0.05L14.31 0.18ZM8.01 2.16L7.78 2.49L7.7 2.9L7.78 3.31L8.01 3.65L8.34 3.87L8.75 3.96L9.16 3.87L9.49 3.65L9.72 3.31L9.8 2.9L9.72 2.49L9.49 2.16L9.16 1.94L8.75 1.85L8.34 1.94L8.01 2.16ZM21.1 6.11L21.38 6.17L21.7 6.29L22.05 6.47L22.41 6.74L22.77 7.09L23.12 7.56L23.44 8.15L23.72 8.88L23.93 9.76L24.07 10.8L24.12 12.03L24.06 13.26L23.9 14.3L23.66 15.16L23.34 15.87L22.98 16.44L22.58 16.89L22.16 17.22L21.74 17.46L21.34 17.62L20.98 17.71L20.66 17.76L20.42 17.78L20.26 17.77H12.04V18.59H17.88L17.89 21.35L17.91 21.71L17.86 22.05L17.75 22.36L17.58 22.65L17.33 22.9L17.02 23.14L16.64 23.34L16.2 23.51L15.69 23.66L15.11 23.79L14.47 23.88L13.76 23.95L12.99 23.99L12.15 24L10.88 23.96L9.81 23.82L8.91 23.62L8.18 23.37L7.59 23.07L7.14 22.74L6.8 22.4L6.55 22.06L6.39 21.73L6.29 21.43L6.25 21.18L6.23 20.98L6.24 20.85V15.51L6.29 14.87L6.42 14.33L6.63 13.87L6.89 13.49L7.19 13.17L7.52 12.93L7.87 12.73L8.22 12.59L8.55 12.49L8.85 12.43L9.11 12.39L9.32 12.37L9.45 12.36H15.29L15.98 12.31L16.57 12.17L17.07 11.96L17.48 11.68L17.81 11.36L18.08 11.01L18.28 10.65L18.43 10.29L18.53 9.94L18.6 9.62L18.64 9.34L18.66 9.13V6.07H20.75L20.89 6.08L21.1 6.11ZM14.63 20.36L14.4 20.69L14.32 21.1L14.4 21.51L14.63 21.84L14.96 22.07L15.37 22.15L15.78 22.07L16.11 21.84L16.34 21.51L16.42 21.1L16.34 20.69L16.11 20.36L15.78 20.13L15.37 20.05L14.96 20.13L14.63 20.36Z" fill="white"/>
</svg>
