<svg width="21" height="24" viewBox="0 0 21 24" fill="none" xmlns="http://www.w3.org/2000/svg">
<path d="M17.142 21.865V15.461H19.276V24H0V15.461H2.13V21.865H17.142V21.865ZM4.267 19.731H15.006V17.594H4.267V19.731ZM4.526 14.879L15.006 17.068L15.457 14.998L4.979 12.811L4.526 14.879V14.879ZM5.885 9.823L15.59 14.353L16.493 12.403L6.787 7.873L5.885 9.809V9.823ZM8.6 5.038L16.817 11.893L18.176 10.273L9.96 3.42L8.61 5.037L8.6 5.038V5.038ZM13.907 0L12.161 1.294L18.566 9.898L20.312 8.604L13.905 0H13.907V0Z" fill="white"/>
</svg>
