<svg width="24" height="15" viewBox="0 0 24 15" fill="none" xmlns="http://www.w3.org/2000/svg">
<path d="M10.0255 9.375H4.6875C3.4443 9.375 2.25201 8.88114 1.37294 8.00206C0.49386 7.12299 0 5.9307 0 4.6875C0 3.4443 0.49386 2.25201 1.37294 1.37294C2.25201 0.49386 3.4443 0 4.6875 0H10.9145C11.4118 0 11.8887 0.197544 12.2403 0.549175C12.592 0.900806 12.7895 1.37772 12.7895 1.875C12.7895 2.37228 12.592 2.84919 12.2403 3.20083C11.8887 3.55246 11.4118 3.75 10.9145 3.75H4.5925C4.34386 3.75 4.1054 3.84877 3.92959 4.02459C3.75377 4.2004 3.655 4.43886 3.655 4.6875C3.655 4.93614 3.75377 5.1746 3.92959 5.35041C4.1054 5.52623 4.34386 5.625 4.5925 5.625H9.9295C11.1727 5.625 12.365 6.11886 13.2441 6.99794C14.1231 7.87701 14.617 9.0693 14.617 10.3125C14.617 11.5557 14.1231 12.748 13.2441 13.6271C12.365 14.5061 11.1727 15 9.9295 15H1.8755C1.37822 15 0.901306 14.8025 0.549675 14.4508C0.198044 14.0992 0.0005 13.6223 0.0005 13.125C0.0005 12.6277 0.198044 12.1508 0.549675 11.7992C0.901306 11.4475 1.37822 11.25 1.8755 11.25H10.0255C10.2741 11.25 10.5126 11.1512 10.6884 10.9754C10.8642 10.7996 10.963 10.5611 10.963 10.3125C10.963 10.0639 10.8642 9.8254 10.6884 9.64959C10.5126 9.47377 10.2741 9.375 10.0255 9.375V9.375ZM13.9705 15C14.6035 14.5703 15.1424 14.0163 15.5544 13.3715C15.9663 12.7268 16.2426 12.005 16.3665 11.25H19.3925C19.639 11.2476 19.8744 11.1475 20.0471 10.9716C20.2198 10.7957 20.3156 10.5585 20.3135 10.312V4.689C20.3156 4.44252 20.2198 4.20527 20.0471 4.02939C19.8744 3.85351 19.639 3.75338 19.3925 3.751H13.8955C14.3509 3.23271 14.6012 2.56592 14.5995 1.876C14.6012 1.18608 14.3509 0.519292 13.8955 0.000999928H20.3135C22.3505 -7.25267e-08 24.0005 1.679 24.0005 3.75V11.25C24.0005 13.321 22.3505 15 20.3135 15H13.9705Z" fill="white"/>
</svg>
