<svg width="24" height="24" viewBox="0 0 24 24" fill="none" xmlns="http://www.w3.org/2000/svg">
<path d="M11.957 0C5.656 0 0.489 4.86 0 11.037L6.432 13.695C6.977 13.324 7.635 13.105 8.344 13.105C8.407 13.105 8.469 13.109 8.532 13.111L11.393 8.969V8.91C11.393 6.415 13.421 4.386 15.917 4.386C18.411 4.386 20.441 6.417 20.441 8.913C20.441 11.409 18.411 13.438 15.917 13.438H15.812L11.736 16.349C11.736 16.401 11.74 16.454 11.74 16.508C11.74 18.383 10.225 19.904 8.35 19.904C6.715 19.904 5.334 18.731 5.019 17.177L0.414 15.27C1.84 20.307 6.464 24 11.957 24C18.584 24 23.956 18.627 23.956 12C23.956 5.373 18.583 0 11.957 0ZM7.518 18.21L6.045 17.6C6.307 18.143 6.759 18.599 7.359 18.85C8.656 19.389 10.152 18.774 10.691 17.475C10.954 16.845 10.955 16.156 10.696 15.526C10.437 14.896 9.946 14.405 9.319 14.143C8.695 13.883 8.029 13.894 7.441 14.113L8.964 14.743C9.92 15.143 10.373 16.243 9.973 17.198C9.576 18.155 8.476 18.608 7.519 18.21H7.518ZM18.933 8.907C18.933 7.245 17.58 5.892 15.918 5.892C14.253 5.892 12.903 7.245 12.903 8.907C12.903 10.572 14.253 11.922 15.918 11.922C17.581 11.922 18.933 10.572 18.933 8.907ZM13.66 8.902C13.66 7.65 14.673 6.636 15.925 6.636C17.174 6.636 18.191 7.65 18.191 8.902C18.191 10.153 17.174 11.167 15.925 11.167C14.672 11.167 13.66 10.153 13.66 8.902V8.902Z" fill="white"/>
</svg>
