<svg width="24" height="17" viewBox="0 0 24 17" fill="none" xmlns="http://www.w3.org/2000/svg">
<path d="M23.4992 2.59001C23.3601 2.09152 23.0948 1.63734 22.7288 1.27139C22.3629 0.905435 21.9087 0.640093 21.4102 0.501014C19.5402 1.41263e-05 12.0102 1.41866e-05 12.0102 1.41866e-05C12.0102 1.41866e-05 4.5012 -0.00998586 2.6112 0.501014C2.11277 0.640331 1.65871 0.905891 1.29294 1.27202C0.92716 1.63814 0.662035 2.09245 0.523195 2.59101C0.168405 4.50583 -0.00668926 6.44961 0.000195359 8.39701C-0.00538317 10.3374 0.169706 12.2741 0.523195 14.182C0.662185 14.6804 0.927377 15.1345 1.29314 15.5004C1.65891 15.8664 2.11288 16.1318 2.6112 16.271C4.4802 16.773 12.0112 16.773 12.0112 16.773C12.0112 16.773 19.5192 16.773 21.4102 16.271C21.9088 16.1318 22.3631 15.8664 22.729 15.5002C23.095 15.1341 23.3603 14.6797 23.4992 14.181C23.8449 12.2727 24.0123 10.3364 23.9992 8.39701C24.0138 6.44967 23.8464 4.50521 23.4992 2.58901V2.59001ZM9.6082 11.99V4.79401L15.8742 8.39801L9.6082 11.99Z" fill="white"/>
</svg>
